<svg width="228" height="184" viewBox="0 0 228 184" fill="none" xmlns="http://www.w3.org/2000/svg">
<g opacity="0.3">
<circle cx="4" cy="4" r="4" fill="#FFD494"/>
<circle cx="24" cy="4" r="4" fill="#FFD494"/>
<circle cx="44" cy="4" r="4" fill="#FFD494"/>
<circle cx="64" cy="4" r="4" fill="#FFD494"/>
<circle cx="84" cy="4" r="4" fill="#FFD494"/>
<circle cx="104" cy="4" r="4" fill="#FFD494"/>
<circle cx="124" cy="4" r="4" fill="#FFD494"/>
<circle cx="144" cy="4" r="4" fill="#FFD494"/>
<circle cx="164" cy="4" r="4" fill="#FFD494"/>
<circle cx="184" cy="4" r="4" fill="#FFD494"/>
<circle cx="204" cy="4" r="4" fill="#FFD494"/>
<circle cx="224" cy="4" r="4" fill="#FFD494"/>
<circle cx="4" cy="20" r="4" fill="#FFD494"/>
<circle cx="24" cy="20" r="4" fill="#FFD494"/>
<circle cx="44" cy="20" r="4" fill="#FFD494"/>
<circle cx="64" cy="20" r="4" fill="#FFD494"/>
<circle cx="84" cy="20" r="4" fill="#FFD494"/>
<circle cx="104" cy="20" r="4" fill="#FFD494"/>
<circle cx="124" cy="20" r="4" fill="#FFD494"/>
<circle cx="144" cy="20" r="4" fill="#FFD494"/>
<circle cx="164" cy="20" r="4" fill="#FFD494"/>
<circle cx="184" cy="20" r="4" fill="#FFD494"/>
<circle cx="204" cy="20" r="4" fill="#FFD494"/>
<circle cx="224" cy="20" r="4" fill="#FFD494"/>
<circle cx="4" cy="36" r="4" fill="#FFD494"/>
<circle cx="24" cy="36" r="4" fill="#FFD494"/>
<circle cx="44" cy="36" r="4" fill="#FFD494"/>
<circle cx="64" cy="36" r="4" fill="#FFD494"/>
<circle cx="84" cy="36" r="4" fill="#FFD494"/>
<circle cx="104" cy="36" r="4" fill="#FFD494"/>
<circle cx="124" cy="36" r="4" fill="#FFD494"/>
<circle cx="144" cy="36" r="4" fill="#FFD494"/>
<circle cx="164" cy="36" r="4" fill="#FFD494"/>
<circle cx="184" cy="36" r="4" fill="#FFD494"/>
<circle cx="204" cy="36" r="4" fill="#FFD494"/>
<circle cx="224" cy="36" r="4" fill="#FFD494"/>
<circle cx="4" cy="52" r="4" fill="#FFD494"/>
<circle cx="24" cy="52" r="4" fill="#FFD494"/>
<circle cx="44" cy="52" r="4" fill="#FFD494"/>
<circle cx="64" cy="52" r="4" fill="#FFD494"/>
<circle cx="84" cy="52" r="4" fill="#FFD494"/>
<circle cx="104" cy="52" r="4" fill="#FFD494"/>
<circle cx="124" cy="52" r="4" fill="#FFD494"/>
<circle cx="144" cy="52" r="4" fill="#FFD494"/>
<circle cx="164" cy="52" r="4" fill="#FFD494"/>
<circle cx="184" cy="52" r="4" fill="#FFD494"/>
<circle cx="204" cy="52" r="4" fill="#FFD494"/>
<circle cx="224" cy="52" r="4" fill="#FFD494"/>
<circle cx="4" cy="68" r="4" fill="#FFD494"/>
<circle cx="24" cy="68" r="4" fill="#FFD494"/>
<circle cx="44" cy="68" r="4" fill="#FFD494"/>
<circle cx="64" cy="68" r="4" fill="#FFD494"/>
<circle cx="84" cy="68" r="4" fill="#FFD494"/>
<circle cx="104" cy="68" r="4" fill="#FFD494"/>
<circle cx="124" cy="68" r="4" fill="#FFD494"/>
<circle cx="144" cy="68" r="4" fill="#FFD494"/>
<circle cx="164" cy="68" r="4" fill="#FFD494"/>
<circle cx="184" cy="68" r="4" fill="#FFD494"/>
<circle cx="204" cy="68" r="4" fill="#FFD494"/>
<circle cx="224" cy="68" r="4" fill="#FFD494"/>
<circle cx="4" cy="84" r="4" fill="#FFD494"/>
<circle cx="24" cy="84" r="4" fill="#FFD494"/>
<circle cx="44" cy="84" r="4" fill="#FFD494"/>
<circle cx="64" cy="84" r="4" fill="#FFD494"/>
<circle cx="84" cy="84" r="4" fill="#FFD494"/>
<circle cx="104" cy="84" r="4" fill="#FFD494"/>
<circle cx="124" cy="84" r="4" fill="#FFD494"/>
<circle cx="144" cy="84" r="4" fill="#FFD494"/>
<circle cx="164" cy="84" r="4" fill="#FFD494"/>
<circle cx="184" cy="84" r="4" fill="#FFD494"/>
<circle cx="204" cy="84" r="4" fill="#FFD494"/>
<circle cx="224" cy="84" r="4" fill="#FFD494"/>
<circle cx="4" cy="100" r="4" fill="#FFD494"/>
<circle cx="24" cy="100" r="4" fill="#FFD494"/>
<circle cx="44" cy="100" r="4" fill="#FFD494"/>
<circle cx="64" cy="100" r="4" fill="#FFD494"/>
<circle cx="84" cy="100" r="4" fill="#FFD494"/>
<circle cx="104" cy="100" r="4" fill="#FFD494"/>
<circle cx="124" cy="100" r="4" fill="#FFD494"/>
<circle cx="144" cy="100" r="4" fill="#FFD494"/>
<circle cx="164" cy="100" r="4" fill="#FFD494"/>
<circle cx="184" cy="100" r="4" fill="#FFD494"/>
<circle cx="204" cy="100" r="4" fill="#FFD494"/>
<circle cx="224" cy="100" r="4" fill="#FFD494"/>
<circle cx="4" cy="116" r="4" fill="#FFD494"/>
<circle cx="24" cy="116" r="4" fill="#FFD494"/>
<circle cx="44" cy="116" r="4" fill="#FFD494"/>
<circle cx="64" cy="116" r="4" fill="#FFD494"/>
<circle cx="84" cy="116" r="4" fill="#FFD494"/>
<circle cx="104" cy="116" r="4" fill="#FFD494"/>
<circle cx="124" cy="116" r="4" fill="#FFD494"/>
<circle cx="144" cy="116" r="4" fill="#FFD494"/>
<circle cx="164" cy="116" r="4" fill="#FFD494"/>
<circle cx="184" cy="116" r="4" fill="#FFD494"/>
<circle cx="204" cy="116" r="4" fill="#FFD494"/>
<circle cx="224" cy="116" r="4" fill="#FFD494"/>
<circle cx="4" cy="132" r="4" fill="#FFD494"/>
<circle cx="24" cy="132" r="4" fill="#FFD494"/>
<circle cx="44" cy="132" r="4" fill="#FFD494"/>
<circle cx="64" cy="132" r="4" fill="#FFD494"/>
<circle cx="84" cy="132" r="4" fill="#FFD494"/>
<circle cx="104" cy="132" r="4" fill="#FFD494"/>
<circle cx="124" cy="132" r="4" fill="#FFD494"/>
<circle cx="144" cy="132" r="4" fill="#FFD494"/>
<circle cx="164" cy="132" r="4" fill="#FFD494"/>
<circle cx="184" cy="132" r="4" fill="#FFD494"/>
<circle cx="204" cy="132" r="4" fill="#FFD494"/>
<circle cx="224" cy="132" r="4" fill="#FFD494"/>
<circle cx="4" cy="148" r="4" fill="#FFD494"/>
<circle cx="24" cy="148" r="4" fill="#FFD494"/>
<circle cx="44" cy="148" r="4" fill="#FFD494"/>
<circle cx="64" cy="148" r="4" fill="#FFD494"/>
<circle cx="84" cy="148" r="4" fill="#FFD494"/>
<circle cx="104" cy="148" r="4" fill="#FFD494"/>
<circle cx="124" cy="148" r="4" fill="#FFD494"/>
<circle cx="144" cy="148" r="4" fill="#FFD494"/>
<circle cx="164" cy="148" r="4" fill="#FFD494"/>
<circle cx="184" cy="148" r="4" fill="#FFD494"/>
<circle cx="204" cy="148" r="4" fill="#FFD494"/>
<circle cx="224" cy="148" r="4" fill="#FFD494"/>
<circle cx="4" cy="164" r="4" fill="#FFD494"/>
<circle cx="24" cy="164" r="4" fill="#FFD494"/>
<circle cx="44" cy="164" r="4" fill="#FFD494"/>
<circle cx="64" cy="164" r="4" fill="#FFD494"/>
<circle cx="84" cy="164" r="4" fill="#FFD494"/>
<circle cx="104" cy="164" r="4" fill="#FFD494"/>
<circle cx="124" cy="164" r="4" fill="#FFD494"/>
<circle cx="144" cy="164" r="4" fill="#FFD494"/>
<circle cx="164" cy="164" r="4" fill="#FFD494"/>
<circle cx="184" cy="164" r="4" fill="#FFD494"/>
<circle cx="204" cy="164" r="4" fill="#FFD494"/>
<circle cx="224" cy="164" r="4" fill="#FFD494"/>
<circle cx="4" cy="180" r="4" fill="#FFD494"/>
<circle cx="24" cy="180" r="4" fill="#FFD494"/>
<circle cx="44" cy="180" r="4" fill="#FFD494"/>
<circle cx="64" cy="180" r="4" fill="#FFD494"/>
<circle cx="84" cy="180" r="4" fill="#FFD494"/>
<circle cx="104" cy="180" r="4" fill="#FFD494"/>
<circle cx="124" cy="180" r="4" fill="#FFD494"/>
<circle cx="144" cy="180" r="4" fill="#FFD494"/>
<circle cx="164" cy="180" r="4" fill="#FFD494"/>
<circle cx="184" cy="180" r="4" fill="#FFD494"/>
<circle cx="204" cy="180" r="4" fill="#FFD494"/>
<circle cx="224" cy="180" r="4" fill="#FFD494"/>
</g>
</svg>
