<svg width="39" height="32" viewBox="0 0 39 32" fill="none" xmlns="http://www.w3.org/2000/svg">
<path fill-rule="evenodd" clip-rule="evenodd" d="M22.75 7C22.2859 7 21.8408 7.18437 21.5126 7.51256C21.1844 7.84075 21 8.28587 21 8.75V22.75C21 23.2141 21.1844 23.6592 21.5126 23.9874C21.8408 24.3156 22.2859 24.5 22.75 24.5H29.75C30.2141 24.5 30.6592 24.3156 30.9874 23.9874C31.3156 23.6592 31.5 23.2141 31.5 22.75V8.75C31.5 8.28587 31.3156 7.84075 30.9874 7.51256C30.6592 7.18437 30.2141 7 29.75 7H22.75ZM28 10.5H24.5V21H28V10.5Z" fill="#FF9900"/>
<path d="M8.75 7C8.28587 7 7.84075 7.18437 7.51256 7.51256C7.18437 7.84075 7 8.28587 7 8.75C7 9.21413 7.18437 9.65925 7.51256 9.98744C7.84075 10.3156 8.28587 10.5 8.75 10.5H15.75C16.2141 10.5 16.6592 10.3156 16.9874 9.98744C17.3156 9.65925 17.5 9.21413 17.5 8.75C17.5 8.28587 17.3156 7.84075 16.9874 7.51256C16.6592 7.18437 16.2141 7 15.75 7H8.75ZM8.75 14C8.28587 14 7.84075 14.1844 7.51256 14.5126C7.18437 14.8408 7 15.2859 7 15.75C7 16.2141 7.18437 16.6592 7.51256 16.9874C7.84075 17.3156 8.28587 17.5 8.75 17.5H15.75C16.2141 17.5 16.6592 17.3156 16.9874 16.9874C17.3156 16.6592 17.5 16.2141 17.5 15.75C17.5 15.2859 17.3156 14.8408 16.9874 14.5126C16.6592 14.1844 16.2141 14 15.75 14H8.75ZM7 22.75C7 22.2859 7.18437 21.8408 7.51256 21.5126C7.84075 21.1844 8.28587 21 8.75 21H15.75C16.2141 21 16.6592 21.1844 16.9874 21.5126C17.3156 21.8408 17.5 22.2859 17.5 22.75C17.5 23.2141 17.3156 23.6592 16.9874 23.9874C16.6592 24.3156 16.2141 24.5 15.75 24.5H8.75C8.28587 24.5 7.84075 24.3156 7.51256 23.9874C7.18437 23.6592 7 23.2141 7 22.75Z" fill="#FF9900"/>
<path fill-rule="evenodd" clip-rule="evenodd" d="M5.25 0C3.85761 0 2.52226 0.553124 1.53769 1.53769C0.553123 2.52226 0 3.85761 0 5.25V26.25C0 27.6424 0.553123 28.9777 1.53769 29.9623C2.52226 30.9469 3.85761 31.5 5.25 31.5H33.25C34.6424 31.5 35.9777 30.9469 36.9623 29.9623C37.9469 28.9777 38.5 27.6424 38.5 26.25V5.25C38.5 3.85761 37.9469 2.52226 36.9623 1.53769C35.9777 0.553124 34.6424 0 33.25 0H5.25ZM33.25 3.5H5.25C4.78587 3.5 4.34075 3.68437 4.01256 4.01256C3.68437 4.34075 3.5 4.78587 3.5 5.25V26.25C3.5 26.7141 3.68437 27.1592 4.01256 27.4874C4.34075 27.8156 4.78587 28 5.25 28H33.25C33.7141 28 34.1592 27.8156 34.4874 27.4874C34.8156 27.1592 35 26.7141 35 26.25V5.25C35 4.78587 34.8156 4.34075 34.4874 4.01256C34.1592 3.68437 33.7141 3.5 33.25 3.5Z" fill="#FF9900"/>
</svg>
