<svg width="32" height="36" viewBox="0 0 32 36" fill="none" xmlns="http://www.w3.org/2000/svg">
<path d="M4.20322 10.4688C4.20322 7.94505 5.20576 5.52471 6.99029 3.74019C8.77481 1.95566 11.1951 0.953125 13.7188 0.953125C16.2425 0.953125 18.6629 1.95566 20.4474 3.74019C22.2319 5.52471 23.2345 7.94505 23.2345 10.4688C23.2345 10.7298 23.1308 10.9802 22.9462 11.1648C22.7616 11.3494 22.5112 11.4531 22.2501 11.4531C21.989 11.4531 21.7386 11.3494 21.554 11.1648C21.3694 10.9802 21.2657 10.7298 21.2657 10.4688C21.2657 8.46719 20.4706 6.54762 19.0553 5.1323C17.64 3.71699 15.7204 2.92187 13.7188 2.92188C11.7173 2.92187 9.79772 3.71699 8.3824 5.1323C6.96709 6.54762 6.17197 8.46719 6.17197 10.4688C6.17197 10.7298 6.06826 10.9802 5.88366 11.1648C5.69905 11.3494 5.44867 11.4531 5.1876 11.4531C4.92653 11.4531 4.67615 11.3494 4.49154 11.1648C4.30693 10.9802 4.20322 10.7298 4.20322 10.4688ZM26.8438 18.0156C25.99 18.0148 25.1558 18.2715 24.4502 18.7523C24.3042 18.0801 23.9979 17.4532 23.5572 16.925C23.1166 16.3968 22.5548 15.983 21.9197 15.7189C21.2846 15.4548 20.595 15.3481 19.9098 15.4081C19.2246 15.4681 18.564 15.6928 17.9845 16.0633V10.4688C17.9845 9.33744 17.5351 8.25246 16.7351 7.4525C15.9351 6.65254 14.8502 6.20313 13.7188 6.20312C12.5875 6.20313 11.5026 6.65254 10.7026 7.4525C9.90264 8.25246 9.45322 9.33744 9.45322 10.4688V24.7422L8.21783 22.757C7.64935 21.778 6.71523 21.0649 5.62098 20.7746C4.52673 20.4843 3.36197 20.6406 2.38295 21.2091C1.40393 21.7776 0.690835 22.7117 0.400541 23.806C0.110248 24.9002 0.266535 26.065 0.83502 27.044L5.64533 35.2471C5.78015 35.4654 5.99484 35.6224 6.24368 35.6847C6.49253 35.747 6.75587 35.7097 6.97764 35.5808C7.1994 35.4518 7.36207 35.2414 7.43099 34.9943C7.49992 34.7472 7.46966 34.4829 7.34666 34.2578L2.54127 26.0547C2.39046 25.7935 2.29257 25.5051 2.25321 25.206C2.21384 24.9069 2.23377 24.6031 2.31184 24.3117C2.46953 23.7233 2.85451 23.2216 3.38209 22.917C3.90967 22.6124 4.53665 22.5299 5.12508 22.6876C5.41644 22.7656 5.68957 22.9003 5.92888 23.084C6.16818 23.2676 6.36897 23.4966 6.51979 23.7578C6.52432 23.7676 6.52982 23.777 6.53619 23.7857L9.60088 28.7076C9.71371 28.8896 9.88286 29.0299 10.0826 29.1072C10.2824 29.1844 10.502 29.1944 10.7079 29.1356C10.9139 29.0767 11.095 28.9523 11.2239 28.7813C11.3528 28.6102 11.4223 28.4017 11.422 28.1875V10.4688C11.422 9.85958 11.664 9.27536 12.0947 8.84461C12.5255 8.41387 13.1097 8.17188 13.7188 8.17188C14.328 8.17188 14.9122 8.41387 15.343 8.84461C15.7737 9.27536 16.0157 9.85958 16.0157 10.4688V21.625C16.0157 21.8861 16.1194 22.1365 16.304 22.3211C16.4886 22.5057 16.739 22.6094 17.0001 22.6094C17.2612 22.6094 17.5116 22.5057 17.6962 22.3211C17.8808 22.1365 17.9845 21.8861 17.9845 21.625V19.6562C17.9845 19.0471 18.2265 18.4629 18.6572 18.0321C19.088 17.6014 19.6722 17.3594 20.2813 17.3594C20.8905 17.3594 21.4747 17.6014 21.9055 18.0321C22.3362 18.4629 22.5782 19.0471 22.5782 19.6562V22.9375C22.5782 23.1986 22.6819 23.449 22.8665 23.6336C23.0511 23.8182 23.3015 23.9219 23.5626 23.9219C23.8237 23.9219 24.0741 23.8182 24.2587 23.6336C24.4433 23.449 24.547 23.1986 24.547 22.9375V22.2812C24.547 21.6721 24.789 21.0879 25.2197 20.6571C25.6505 20.2264 26.2347 19.9844 26.8438 19.9844C27.453 19.9844 28.0372 20.2264 28.468 20.6571C28.8987 21.0879 29.1407 21.6721 29.1407 22.2812V28.1875C29.1407 31.8182 27.9431 34.2873 27.9316 34.3103C27.8175 34.5431 27.7998 34.8115 27.8825 35.0573C27.9651 35.303 28.1413 35.5062 28.3729 35.6228C28.5084 35.6947 28.6592 35.733 28.8126 35.7344C28.9958 35.7347 29.1755 35.6839 29.3315 35.5877C29.4874 35.4915 29.6134 35.3536 29.6953 35.1897C29.7527 35.0748 31.1111 32.3104 31.1111 28.1875V22.2812C31.1111 21.7209 31.0007 21.1661 30.7863 20.6485C30.5718 20.1309 30.2574 19.6605 29.8612 19.2644C29.4649 18.8683 28.9945 18.5541 28.4767 18.3399C27.959 18.1256 27.4042 18.0154 26.8438 18.0156Z" fill="#FF9900"/>
</svg>
