<svg width="40" height="36" viewBox="0 0 40 36" fill="none" xmlns="http://www.w3.org/2000/svg">
<path d="M25.25 35.5122H7.75005V32.0122H25.25V35.5122ZM37.5 4L29.2138 14.4212L28.8288 14.8938L18.9763 27.4763C18.6511 27.8014 18.2651 28.0594 17.8402 28.2354C17.4153 28.4114 16.9599 28.5019 16.5 28.5019C16.0402 28.5019 15.5848 28.4114 15.1599 28.2354C14.735 28.0594 14.349 27.8014 14.0238 27.4763C13.6986 27.1511 13.4407 26.765 13.2647 26.3401C13.0887 25.9153 12.9981 25.4599 12.9981 25C12.9981 24.5401 13.0887 24.0847 13.2647 23.6599C13.4407 23.235 13.6986 22.8489 14.0238 22.5238L37.5 4ZM3.6288 9.6595C1.10098 13.7082 0.191816 18.5608 1.08255 23.25H2.50005V21.5C2.48098 18.0542 3.51265 14.6845 5.45755 11.84L3.6288 9.6595ZM20 0.5C17.3236 0.499628 14.6767 1.05951 12.2297 2.14363C9.78268 3.22775 7.58968 4.8121 5.7918 6.79475L7.7938 9.18C10.1695 6.99554 13.2728 5.77292 16.5 5.75C19.7447 5.77262 22.8637 7.00724 25.2448 9.2115L31.4573 4.308C28.1491 1.8357 24.13 0.499864 20 0.5ZM31.9525 16.6L31.5448 17.1023L30.2708 18.7297C30.4197 19.6457 30.4963 20.572 30.5 21.5V23.25H38.9175C39.748 18.8704 39.0154 14.3383 36.8473 10.4435L31.9525 16.6Z" fill="#FF9900"/>
</svg>
