<svg width="45" height="48" viewBox="0 0 45 48" fill="none" xmlns="http://www.w3.org/2000/svg">
<path d="M0 2.94564V45.0522C0.000283543 45.1436 0.0276705 45.2328 0.0787267 45.3087C0.129783 45.3847 0.202236 45.4439 0.286999 45.479C0.371763 45.5142 0.465065 45.5236 0.555205 45.5062C0.645344 45.4888 0.72831 45.4453 0.793697 45.3811L22.8309 24L0.793697 2.61671C0.72831 2.55258 0.645344 2.50907 0.555205 2.49166C0.465065 2.47424 0.371763 2.48369 0.286999 2.51882C0.202236 2.55394 0.129783 2.61319 0.0787267 2.68912C0.0276705 2.76505 0.000283543 2.85428 0 2.94564ZM32.071 15.2144L4.4391 0.06889L4.42187 0.0592472C3.94587 -0.197892 3.49356 0.442814 3.88341 0.815666L25.5437 21.4211L32.071 15.2144ZM3.88556 47.1843C3.49356 47.5572 3.94587 48.1979 4.42403 47.9408L4.44126 47.9311L32.071 32.7856L25.5437 26.5767L3.88556 47.1843ZM43.2258 21.3215L35.5096 17.0937L28.2543 24L35.5096 30.9031L43.2258 26.6785C45.3247 25.5246 45.3247 22.4754 43.2258 21.3215Z" fill="white"/>
</svg>
