<svg width="72" height="80" viewBox="0 0 72 80" fill="none" xmlns="http://www.w3.org/2000/svg">
<path d="M72 58C72 59.52 71.16 60.84 69.88 61.52L38.28 79.28C37.64 79.76 36.84 80 36 80C35.16 80 34.36 79.76 33.72 79.28L2.12002 61.52C1.47873 61.183 0.942064 60.6767 0.568308 60.0561C0.194552 59.4356 -0.00199668 58.7244 1.5293e-05 58V22C1.5293e-05 20.48 0.840015 19.16 2.12002 18.48L33.72 0.72C34.36 0.24 35.16 0 36 0C36.84 0 37.64 0.24 38.28 0.72L69.88 18.48C71.16 19.16 72 20.48 72 22V58Z" fill="#FFDFB0"/>
<path d="M25.94 25.7C26.1278 25.4805 26.3609 25.3042 26.6233 25.1834C26.8857 25.0625 27.1711 25 27.46 25H44.54C44.8289 25 45.1143 25.0625 45.3767 25.1834C45.6391 25.3042 45.8722 25.4805 46.06 25.7L51.278 31.788C51.7439 32.3317 52 33.024 52 33.74V34.25C52.0001 35.24 51.6909 36.2052 51.1156 37.0108C50.5404 37.8165 49.7277 38.4223 48.7914 38.7435C47.855 39.0647 46.8416 39.0854 45.8929 38.8025C44.9442 38.5197 44.1076 37.9475 43.5 37.166C43.0564 37.7376 42.4878 38.2001 41.8378 38.518C41.1878 38.8359 40.4736 39.0008 39.75 39C39.0264 39.0008 38.3122 38.8359 37.6622 38.518C37.0122 38.2001 36.4436 37.7376 36 37.166C35.5564 37.7376 34.9878 38.2001 34.3378 38.518C33.6878 38.8359 32.9736 39.0008 32.25 39C31.5264 39.0008 30.8122 38.8359 30.1622 38.518C29.5122 38.2001 28.9436 37.7376 28.5 37.166C27.8924 37.9475 27.0558 38.5197 26.1071 38.8025C25.1584 39.0854 24.145 39.0647 23.2086 38.7435C22.2723 38.4223 21.4596 37.8165 20.8844 37.0108C20.3091 36.2052 19.9999 35.24 20 34.25V33.74C20 33.024 20.2561 32.3317 20.722 31.788L25.94 25.7ZM29.5 34.25C29.5 34.9793 29.7897 35.6788 30.3055 36.1945C30.8212 36.7103 31.5207 37 32.25 37C32.9793 37 33.6788 36.7103 34.1945 36.1945C34.7103 35.6788 35 34.9793 35 34.25C35 33.9848 35.1054 33.7304 35.2929 33.5429C35.4804 33.3554 35.7348 33.25 36 33.25C36.2652 33.25 36.5196 33.3554 36.7071 33.5429C36.8946 33.7304 37 33.9848 37 34.25C37 34.9793 37.2897 35.6788 37.8055 36.1945C38.3212 36.7103 39.0207 37 39.75 37C40.4793 37 41.1788 36.7103 41.6945 36.1945C42.2103 35.6788 42.5 34.9793 42.5 34.25C42.5 33.9848 42.6054 33.7304 42.7929 33.5429C42.9804 33.3554 43.2348 33.25 43.5 33.25C43.7652 33.25 44.0196 33.3554 44.2071 33.5429C44.3946 33.7304 44.5 33.9848 44.5 34.25C44.5 34.9793 44.7897 35.6788 45.3055 36.1945C45.8212 36.7103 46.5207 37 47.25 37C47.9793 37 48.6788 36.7103 49.1945 36.1945C49.7103 35.6788 50 34.9793 50 34.25V33.74C50 33.5017 49.9149 33.2711 49.76 33.09L44.54 27H27.46L22.24 33.09C22.0851 33.2711 22 33.5017 22 33.74V34.25C22 34.9793 22.2897 35.6788 22.8055 36.1945C23.3212 36.7103 24.0207 37 24.75 37C25.4793 37 26.1788 36.7103 26.6945 36.1945C27.2103 35.6788 27.5 34.9793 27.5 34.25C27.5 33.9848 27.6054 33.7304 27.7929 33.5429C27.9804 33.3554 28.2348 33.25 28.5 33.25C28.7652 33.25 29.0196 33.3554 29.2071 33.5429C29.3946 33.7304 29.5 33.9848 29.5 34.25ZM23 40C23.2652 40 23.5196 40.1054 23.7071 40.2929C23.8946 40.4804 24 40.7348 24 41V53H26V43C26 42.4696 26.2107 41.9609 26.5858 41.5858C26.9609 41.2107 27.4696 41 28 41H34C34.5304 41 35.0391 41.2107 35.4142 41.5858C35.7893 41.9609 36 42.4696 36 43V53H48V41C48 40.7348 48.1054 40.4804 48.2929 40.2929C48.4804 40.1054 48.7348 40 49 40C49.2652 40 49.5196 40.1054 49.7071 40.2929C49.8946 40.4804 50 40.7348 50 41V53H51C51.2652 53 51.5196 53.1054 51.7071 53.2929C51.8946 53.4804 52 53.7348 52 54C52 54.2652 51.8946 54.5196 51.7071 54.7071C51.5196 54.8946 51.2652 55 51 55H21C20.7348 55 20.4804 54.8946 20.2929 54.7071C20.1054 54.5196 20 54.2652 20 54C20 53.7348 20.1054 53.4804 20.2929 53.2929C20.4804 53.1054 20.7348 53 21 53H22V41C22 40.7348 22.1054 40.4804 22.2929 40.2929C22.4804 40.1054 22.7348 40 23 40ZM28 53H34V43H28V53ZM38 43C38 42.4696 38.2107 41.9609 38.5858 41.5858C38.9609 41.2107 39.4696 41 40 41H44C44.5304 41 45.0391 41.2107 45.4142 41.5858C45.7893 41.9609 46 42.4696 46 43V49C46 49.5304 45.7893 50.0391 45.4142 50.4142C45.0391 50.7893 44.5304 51 44 51H40C39.4696 51 38.9609 50.7893 38.5858 50.4142C38.2107 50.0391 38 49.5304 38 49V43ZM44 43H40V49H44V43Z" fill="#FF9900"/>
</svg>
