<svg width="72" height="80" viewBox="0 0 72 80" fill="none" xmlns="http://www.w3.org/2000/svg">
<path d="M72 58C72 59.52 71.16 60.84 69.88 61.52L38.28 79.28C37.64 79.76 36.84 80 36 80C35.16 80 34.36 79.76 33.72 79.28L2.12002 61.52C1.47873 61.183 0.942064 60.6767 0.568308 60.0561C0.194552 59.4356 -0.00199668 58.7244 1.5293e-05 58V22C1.5293e-05 20.48 0.840015 19.16 2.12002 18.48L33.72 0.72C34.36 0.24 35.16 0 36 0C36.84 0 37.64 0.24 38.28 0.72L69.88 18.48C71.16 19.16 72 20.48 72 22V58Z" fill="#FFDFB0"/>
<path fill-rule="evenodd" clip-rule="evenodd" d="M41 31C41 29.6739 40.4732 28.4021 39.5355 27.4645C38.5979 26.5268 37.3261 26 36 26C34.6739 26 33.4021 26.5268 32.4645 27.4645C31.5268 28.4021 31 29.6739 31 31V32H41V31ZM43 31V32H50V52C50 53.0609 49.5786 54.0783 48.8284 54.8284C48.0783 55.5786 47.0609 56 46 56H26C24.9391 56 23.9217 55.5786 23.1716 54.8284C22.4214 54.0783 22 53.0609 22 52V32H29V31C29 29.1435 29.7375 27.363 31.0503 26.0503C32.363 24.7375 34.1435 24 36 24C37.8565 24 39.637 24.7375 40.9497 26.0503C42.2625 27.363 43 29.1435 43 31ZM48 52V34H24V52C24 52.5304 24.2107 53.0391 24.5858 53.4142C24.9609 53.7893 25.4696 54 26 54H46C46.5304 54 47.0391 53.7893 47.4142 53.4142C47.7893 53.0391 48 52.5304 48 52ZM36 39.986C39.328 36.564 47.65 42.552 36 50.25C24.35 42.55 32.672 36.564 36 39.986Z" fill="#FF9900"/>
</svg>
