<svg width="72" height="80" viewBox="0 0 72 80" fill="none" xmlns="http://www.w3.org/2000/svg">
<path d="M72 58C72 59.52 71.16 60.84 69.88 61.52L38.28 79.28C37.64 79.76 36.84 80 36 80C35.16 80 34.36 79.76 33.72 79.28L2.12002 61.52C1.47873 61.183 0.942064 60.6767 0.568308 60.0561C0.194552 59.4356 -0.00199668 58.7244 1.5293e-05 58V22C1.5293e-05 20.48 0.840015 19.16 2.12002 18.48L33.72 0.72C34.36 0.24 35.16 0 36 0C36.84 0 37.64 0.24 38.28 0.72L69.88 18.48C71.16 19.16 72 20.48 72 22V58Z" fill="#FFDFB0"/>
<path d="M35.4999 26.2856C43.0742 26.2856 49.2142 32.4256 49.2142 39.9999C49.2142 47.5742 43.0742 53.7142 35.4999 53.7142C27.9256 53.7142 21.7856 47.5742 21.7856 39.9999C21.7856 32.4256 27.9256 26.2856 35.4999 26.2856ZM35.4999 28.5714C29.1879 28.5714 24.0714 33.6879 24.0714 39.9999C24.0714 46.3119 29.1879 51.4285 35.4999 51.4285C41.8119 51.4285 46.9285 46.3119 46.9285 39.9999C46.9285 33.6879 41.8119 28.5714 35.4999 28.5714ZM35.8274 32.1634V33.6988C38.0994 33.8811 39.7445 35.2439 39.8171 37.3068H37.9268C37.8085 36.1616 36.9908 35.4982 35.8274 35.3531V39.1428L36.2639 39.2514C38.6542 39.8062 39.9628 40.7879 39.9628 42.7234C39.9628 44.9502 38.1451 46.2131 35.8274 46.3771V47.9034H34.8005V46.3771C32.4919 46.2039 30.6656 44.9045 30.6022 42.7234H32.4834C32.6468 43.7868 33.3376 44.5685 34.8005 44.7234V40.7599L34.4279 40.6685C32.1194 40.1331 30.8748 39.0971 30.8748 37.2519C30.8748 35.2159 32.5102 33.8714 34.8005 33.6982V32.1628L35.8274 32.1634ZM35.8274 40.9965V44.7319C37.3816 44.6136 38.0359 43.8776 38.0359 42.9051C38.0359 41.9691 37.5274 41.4148 35.8274 40.9965ZM34.8005 35.3531C33.4919 35.5165 32.8011 36.2708 32.8011 37.0982C32.8011 37.9251 33.3468 38.5336 34.8011 38.8976L34.8005 35.3531Z" fill="#FF9900"/>
</svg>
