<svg width="72" height="80" viewBox="0 0 72 80" fill="none" xmlns="http://www.w3.org/2000/svg">
<path d="M72 58C72 59.52 71.16 60.84 69.88 61.52L38.28 79.28C37.64 79.76 36.84 80 36 80C35.16 80 34.36 79.76 33.72 79.28L2.12002 61.52C1.47873 61.183 0.942064 60.6767 0.568308 60.0561C0.194552 59.4356 -0.00199668 58.7244 1.5293e-05 58V22C1.5293e-05 20.48 0.840015 19.16 2.12002 18.48L33.72 0.72C34.36 0.24 35.16 0 36 0C36.84 0 37.64 0.24 38.28 0.72L69.88 18.48C71.16 19.16 72 20.48 72 22V58Z" fill="#FFDFB0"/>
<path d="M24 40H36V42H24V40ZM22 35H32V37H22V35Z" fill="#FF9900"/>
<path d="M49.9188 40.606L46.9188 33.606C46.8419 33.4261 46.7137 33.2727 46.5503 33.165C46.387 33.0573 46.1955 32.9999 45.9998 33H42.9998V31C42.9998 30.7348 42.8945 30.4804 42.707 30.2929C42.5194 30.1054 42.2651 30 41.9998 30H25.9998V32H40.9998V44.556C40.5442 44.8206 40.1454 45.1728 39.8265 45.5922C39.5076 46.0117 39.2749 46.4902 39.1418 47H32.8578C32.6145 46.0573 32.0356 45.2358 31.2298 44.6894C30.4241 44.143 29.4467 43.9092 28.4808 44.0319C27.515 44.1546 26.6271 44.6253 25.9835 45.3558C25.3399 46.0863 24.9849 47.0264 24.9849 48C24.9849 48.9736 25.3399 49.9137 25.9835 50.6442C26.6271 51.3747 27.515 51.8454 28.4808 51.9681C29.4467 52.0908 30.4241 51.857 31.2298 51.3106C32.0356 50.7642 32.6145 49.9427 32.8578 49H39.1418C39.3594 49.8582 39.8569 50.6194 40.5556 51.1632C41.2544 51.7069 42.1145 52.0021 42.9998 52.0021C43.8852 52.0021 44.7453 51.7069 45.4441 51.1632C46.1428 50.6194 46.6403 49.8582 46.8578 49H48.9998C49.2651 49 49.5194 48.8946 49.707 48.7071C49.8945 48.5196 49.9998 48.2652 49.9998 48V41C49.9999 40.8645 49.9723 40.7305 49.9188 40.606ZM28.9998 50C28.6043 50 28.2176 49.8827 27.8887 49.6629C27.5598 49.4432 27.3035 49.1308 27.1521 48.7654C27.0007 48.3999 26.9611 47.9978 27.0383 47.6098C27.1154 47.2219 27.3059 46.8655 27.5856 46.5858C27.8653 46.3061 28.2217 46.1156 28.6097 46.0384C28.9976 45.9613 29.3998 46.0009 29.7652 46.1522C30.1307 46.3036 30.443 46.56 30.6628 46.8889C30.8825 47.2178 30.9998 47.6044 30.9998 48C30.9993 48.5303 30.7884 49.0387 30.4135 49.4136C30.0385 49.7886 29.5301 49.9995 28.9998 50ZM42.9998 35H45.3398L47.4838 40H42.9998V35ZM42.9998 50C42.6043 50 42.2176 49.8827 41.8887 49.6629C41.5598 49.4432 41.3035 49.1308 41.1521 48.7654C41.0007 48.3999 40.9611 47.9978 41.0383 47.6098C41.1154 47.2219 41.3059 46.8655 41.5856 46.5858C41.8653 46.3061 42.2217 46.1156 42.6097 46.0384C42.9976 45.9613 43.3998 46.0009 43.7652 46.1522C44.1307 46.3036 44.443 46.56 44.6628 46.8889C44.8825 47.2178 44.9998 47.6044 44.9998 48C44.9993 48.5303 44.7884 49.0387 44.4135 49.4136C44.0385 49.7886 43.5301 49.9995 42.9998 50ZM47.9998 47H46.8578C46.6376 46.1434 46.1393 45.3842 45.4411 44.8413C44.7429 44.2983 43.8843 44.0025 42.9998 44V42H47.9998V47Z" fill="#FF9900"/>
</svg>
