<svg width="72" height="80" viewBox="0 0 72 80" fill="none" xmlns="http://www.w3.org/2000/svg">
<path d="M72 58C72 59.52 71.16 60.84 69.88 61.52L38.28 79.28C37.64 79.76 36.84 80 36 80C35.16 80 34.36 79.76 33.72 79.28L2.12002 61.52C1.47873 61.183 0.942064 60.6767 0.568308 60.0561C0.194552 59.4356 -0.00199668 58.7244 1.5293e-05 58V22C1.5293e-05 20.48 0.840015 19.16 2.12002 18.48L33.72 0.72C34.36 0.24 35.16 0 36 0C36.84 0 37.64 0.24 38.28 0.72L69.88 18.48C71.16 19.16 72 20.48 72 22V58Z" fill="#FFDFB0"/>
<g clip-path="url(#clip0_720_379)">
<path fill-rule="evenodd" clip-rule="evenodd" d="M25.6495 39.1766C25.8679 38.9341 26.1736 38.7883 26.4995 38.7712C26.8254 38.7541 27.1448 38.8672 27.3873 39.0855L31.4907 42.7778C31.7258 42.9981 31.8652 43.3018 31.8789 43.6237C31.8926 43.9457 31.7795 44.2601 31.5639 44.4996C31.3483 44.739 31.0474 44.8844 30.7258 44.9044C30.4042 44.9244 30.0876 44.8176 29.8439 44.6067L25.7405 40.9144C25.4981 40.696 25.3523 40.3902 25.3352 40.0644C25.3181 39.7385 25.4312 39.4191 25.6495 39.1766Z" fill="#FF9900"/>
<path fill-rule="evenodd" clip-rule="evenodd" d="M31.5816 35.4842C31.7999 35.7268 31.913 36.0461 31.8959 36.372C31.8788 36.6979 31.733 37.0036 31.4905 37.222L27.3872 40.9143C27.2677 41.0262 27.1271 41.1132 26.9737 41.1701C26.8202 41.227 26.657 41.2528 26.4934 41.2458C26.3299 41.2389 26.1694 41.1994 26.0213 41.1296C25.8733 41.0599 25.7406 40.9613 25.6311 40.8397C25.5216 40.7181 25.4374 40.5758 25.3835 40.4213C25.3296 40.2667 25.3071 40.103 25.3173 39.9396C25.3275 39.7762 25.3702 39.6166 25.4428 39.4699C25.5154 39.3232 25.6166 39.1925 25.7404 39.0854L29.8438 35.3931C30.0863 35.1748 30.4057 35.0618 30.7316 35.0788C31.0574 35.0959 31.3632 35.2417 31.5816 35.4842ZM46.3508 39.1765C46.5692 39.4191 46.6822 39.7384 46.6651 40.0643C46.6481 40.3902 46.5022 40.6959 46.2598 40.9143L42.1564 44.6067C42.0369 44.7186 41.8964 44.8055 41.7429 44.8624C41.5895 44.9193 41.4262 44.9451 41.2627 44.9381C41.0991 44.9312 40.9386 44.8917 40.7906 44.8219C40.6425 44.7522 40.5098 44.6536 40.4003 44.532C40.2908 44.4104 40.2066 44.2681 40.1528 44.1136C40.0989 43.959 40.0764 43.7953 40.0866 43.6319C40.0967 43.4686 40.1394 43.3089 40.212 43.1622C40.2847 43.0155 40.3858 42.8848 40.5096 42.7777L44.613 39.0854C44.8556 38.8671 45.1749 38.7541 45.5008 38.7711C45.8267 38.7882 46.1324 38.934 46.3508 39.1765Z" fill="#FF9900"/>
<path fill-rule="evenodd" clip-rule="evenodd" d="M40.4185 35.4841C40.6369 35.2416 40.9427 35.0958 41.2685 35.0788C41.5944 35.0617 41.9138 35.1747 42.1563 35.393L46.2597 39.0853C46.4949 39.3056 46.6342 39.6094 46.6479 39.9313C46.6616 40.2532 46.5485 40.5676 46.3329 40.8071C46.1173 41.0465 45.8164 41.1919 45.4948 41.2119C45.1732 41.232 44.8566 41.1251 44.6129 40.9143L40.5096 37.222C40.2671 37.0036 40.1213 36.6978 40.1042 36.3719C40.0871 36.046 40.2002 35.7267 40.4185 35.4841ZM38.1699 32.0429C38.3259 32.0854 38.4719 32.1582 38.5998 32.2571C38.7276 32.3561 38.8347 32.4792 38.915 32.6196C38.9952 32.7599 39.047 32.9147 39.0674 33.0751C39.0878 33.2355 39.0764 33.3983 39.0339 33.5543L35.3416 47.0927C35.2557 47.4077 35.0482 47.6757 34.7648 47.8378C34.4814 47.9998 34.1452 48.0426 33.8302 47.9567C33.6742 47.9142 33.5281 47.8414 33.4003 47.7425C33.2725 47.6435 33.1654 47.5203 33.0852 47.38C32.9231 47.0965 32.8803 46.7603 32.9662 46.4453L36.6585 32.9069C36.701 32.7509 36.7738 32.6048 36.8727 32.477C36.9717 32.3491 37.0948 32.242 37.2352 32.1618C37.3755 32.0815 37.5303 32.0298 37.6907 32.0093C37.8511 31.9889 38.0139 32.0003 38.1699 32.0429Z" fill="#FF9900"/>
<path fill-rule="evenodd" clip-rule="evenodd" d="M36 53.5385C43.4769 53.5385 49.5385 47.4769 49.5385 40C49.5385 32.5231 43.4769 26.4615 36 26.4615C28.5231 26.4615 22.4615 32.5231 22.4615 40C22.4615 47.4769 28.5231 53.5385 36 53.5385ZM36 56C44.8369 56 52 48.8369 52 40C52 31.1631 44.8369 24 36 24C27.1631 24 20 31.1631 20 40C20 48.8369 27.1631 56 36 56Z" fill="#FF9900"/>
</g>
<defs>
<clipPath id="clip0_720_379">
<rect width="32" height="32" fill="white" transform="translate(20 24)"/>
</clipPath>
</defs>
</svg>
