<svg width="72" height="80" viewBox="0 0 72 80" fill="none" xmlns="http://www.w3.org/2000/svg">
<path d="M72 58C72 59.52 71.16 60.84 69.88 61.52L38.28 79.28C37.64 79.76 36.84 80 36 80C35.16 80 34.36 79.76 33.72 79.28L2.12002 61.52C1.47873 61.183 0.942064 60.6767 0.568308 60.0561C0.194552 59.4356 -0.00199668 58.7244 1.5293e-05 58V22C1.5293e-05 20.48 0.840015 19.16 2.12002 18.48L33.72 0.72C34.36 0.24 35.16 0 36 0C36.84 0 37.64 0.24 38.28 0.72L69.88 18.48C71.16 19.16 72 20.48 72 22V58Z" fill="#FFDFB0"/>
<path d="M28 40.0002H44C45.0609 40.0002 46.0783 39.5787 46.8284 38.8286C47.5786 38.0784 48 37.061 48 36.0002V33.3335C48 32.2726 47.5786 31.2552 46.8284 30.5051C46.0783 29.7549 45.0609 29.3335 44 29.3335H28C26.9391 29.3335 25.9217 29.7549 25.1716 30.5051C24.4214 31.2552 24 32.2726 24 33.3335V36.0002C24 37.061 24.4214 38.0784 25.1716 38.8286C25.9217 39.5787 26.9391 40.0002 28 40.0002ZM28 40.0002C26.9391 40.0002 25.9217 40.4216 25.1716 41.1717C24.4214 41.9219 24 42.9393 24 44.0002V46.6668C24 47.7277 24.4214 48.7451 25.1716 49.4953C25.9217 50.2454 26.9391 50.6668 28 50.6668H36M28 40.0002H42M44 50.6668C43.2928 50.6668 42.6145 50.3859 42.1144 49.8858C41.6143 49.3857 41.3333 48.7074 41.3333 48.0002C41.3333 47.2929 41.6143 46.6146 42.1144 46.1145C42.6145 45.6144 43.2928 45.3335 44 45.3335M44 50.6668C44.7072 50.6668 45.3855 50.3859 45.8856 49.8858C46.3857 49.3857 46.6667 48.7074 46.6667 48.0002C46.6667 47.2929 46.3857 46.6146 45.8856 46.1145C45.3855 45.6144 44.7072 45.3335 44 45.3335M44 50.6668V52.6668M44 45.3335V43.3335M48.0427 45.6668L46.3107 46.6668M41.6933 49.3335L39.96 50.3335M39.96 45.6668L41.6933 46.6668M46.3107 49.3335L48.044 50.3335M29.3333 34.6668V34.6802M29.3333 45.3335V45.3468" stroke="#FF9900" stroke-width="2" stroke-linecap="round" stroke-linejoin="round"/>
</svg>
