<svg width="72" height="80" viewBox="0 0 72 80" fill="none" xmlns="http://www.w3.org/2000/svg">
<path d="M72 58C72 59.52 71.16 60.84 69.88 61.52L38.28 79.28C37.64 79.76 36.84 80 36 80C35.16 80 34.36 79.76 33.72 79.28L2.12002 61.52C1.47873 61.183 0.942064 60.6767 0.568308 60.0561C0.194552 59.4356 -0.00199668 58.7244 1.5293e-05 58V22C1.5293e-05 20.48 0.840015 19.16 2.12002 18.48L33.72 0.72C34.36 0.24 35.16 0 36 0C36.84 0 37.64 0.24 38.28 0.72L69.88 18.48C71.16 19.16 72 20.48 72 22V58Z" fill="#FFDFB0"/>
<g clip-path="url(#clip0_720_383)">
<path d="M46.6665 24H25.3332C24.6259 24 23.9476 24.281 23.4476 24.781C22.9475 25.2811 22.6665 25.9594 22.6665 26.6667V53.3333C22.6665 54.0406 22.9475 54.7189 23.4476 55.219C23.9476 55.719 24.6259 56 25.3332 56H46.6665C47.3737 56 48.052 55.719 48.5521 55.219C49.0522 54.7189 49.3332 54.0406 49.3332 53.3333V26.6667C49.3332 25.9594 49.0522 25.2811 48.5521 24.781C48.052 24.281 47.3737 24 46.6665 24ZM46.6665 53.3333H25.3332V26.6667H46.6665V53.3333Z" fill="#FF9900"/>
<path d="M28 29.3335H44V32.0002H28V29.3335ZM28 34.6668H37.3333V37.3335H28V34.6668ZM30.6667 50.6668H41.3333L36 46.6668L30.6667 50.6668ZM45.3333 49.3335V41.3335L38.6667 45.3335L45.3333 49.3335ZM28 41.3335V49.3335L33.3333 45.3335L28 41.3335ZM41.3333 40.0002H30.6667L36 44.0002L41.3333 40.0002Z" fill="#FF9900"/>
</g>
<defs>
<clipPath id="clip0_720_383">
<rect width="32" height="32" fill="white" transform="translate(20 24)"/>
</clipPath>
</defs>
</svg>
