<svg width="72" height="80" viewBox="0 0 72 80" fill="none" xmlns="http://www.w3.org/2000/svg">
<path d="M72 58C72 59.52 71.16 60.84 69.88 61.52L38.28 79.28C37.64 79.76 36.84 80 36 80C35.16 80 34.36 79.76 33.72 79.28L2.12002 61.52C1.47873 61.183 0.942064 60.6767 0.568308 60.0561C0.194552 59.4356 -0.00199668 58.7244 1.5293e-05 58V22C1.5293e-05 20.48 0.840015 19.16 2.12002 18.48L33.72 0.72C34.36 0.24 35.16 0 36 0C36.84 0 37.64 0.24 38.28 0.72L69.88 18.48C71.16 19.16 72 20.48 72 22V58Z" fill="#FFDFB0"/>
<path d="M45.8818 45.7437C45.4693 45.3625 44.8631 45.2687 44.3443 45.1812C43.6256 45.0625 43.3506 44.9312 42.9318 44.5562C42.0381 43.7625 42.0381 42.6125 42.9318 41.8188L44.8256 40.1375C47.7256 37.575 47.7256 33.375 44.8256 30.8125C42.6881 28.9312 39.8193 28 36.8381 28C33.3568 28 29.7193 29.2687 26.9131 31.7562C21.6943 36.3688 21.6943 43.925 26.9131 48.5375C29.5068 50.8313 33.0068 51.975 36.4693 52H36.5756C40.0381 52 43.4506 50.8813 45.8756 48.725C46.7756 47.9313 46.625 46.4375 45.8818 45.7437Z" stroke="#FF9900" stroke-width="1.5" stroke-miterlimit="10"/>
<path d="M28 39C29.1046 39 30 38.1046 30 37C30 35.8954 29.1046 35 28 35C26.8954 35 26 35.8954 26 37C26 38.1046 26.8954 39 28 39Z" fill="#FF9900"/>
<path d="M28.5 45.4375C29.6046 45.4375 30.5 44.5421 30.5 43.4375C30.5 42.3329 29.6046 41.4375 28.5 41.4375C27.3954 41.4375 26.5 42.3329 26.5 43.4375C26.5 44.5421 27.3954 45.4375 28.5 45.4375Z" fill="#FF9900"/>
<path d="M33 35C34.1046 35 35 34.1046 35 33C35 31.8954 34.1046 31 33 31C31.8954 31 31 31.8954 31 33C31 34.1046 31.8954 35 33 35Z" fill="#FF9900"/>
<path d="M35 49.9375C36.6569 49.9375 38 48.5944 38 46.9375C38 45.2806 36.6569 43.9375 35 43.9375C33.3431 43.9375 32 45.2806 32 46.9375C32 48.5944 33.3431 49.9375 35 49.9375Z" fill="#FF9900"/>
<path d="M39.5 35C40.6046 35 41.5 34.1046 41.5 33C41.5 31.8954 40.6046 31 39.5 31C38.3954 31 37.5 31.8954 37.5 33C37.5 34.1046 38.3954 35 39.5 35Z" fill="#FF9900"/>
</svg>
